Coordinates
version=1
nRows=12
nColumns=24
inDegrees=yes

Units are S.I. units (second, meters, Newtons, ...)
Angles are in degrees.

endheader
time	pelvis_tilt	pelvis_list	pelvis_rotation	pelvis_tx	pelvis_ty	pelvis_tz	hip_flexion_r	hip_adduction_r	hip_rotation_r	knee_angle_r	ankle_angle_r	subtalar_angle_r	mtp_angle_r	hip_flexion_l	hip_adduction_l	hip_rotation_l	knee_angle_l	ankle_angle_l	subtalar_angle_l	mtp_angle_l	lumbar_extension	lumbar_bending	lumbar_rotation
      1.15683333	      5.03838445	      3.88820730	     -4.97955700	      0.16893494	      1.02827649	      0.25765856	      9.79587715	     -3.37047484	     -0.07617760	    -62.99356306	      3.49775651	    -22.44261042	      0.26569713	      2.28216324	      7.19202597	      0.21817980	    -11.73098180	      3.90639859	    -13.97423887	      1.84006832	     -7.94634708	     -5.46787642	      5.54802613
      1.16100000	      4.98123119	      3.72752940	     -4.96984161	      0.17403260	      1.02892883	      0.25762379	     10.32429534	     -3.12253065	      0.02776026	    -62.41622864	      3.71983395	    -22.37886398	      0.21723678	      1.87092450	      7.05118702	      0.29224749	    -11.46580090	      4.00597361	    -13.99625022	      1.80209444	     -7.94259887	     -5.30241302	      5.45106135
      1.16516667	      4.94760659	      3.57450588	     -4.94270940	      0.17914609	      1.02958060	      0.25757174	     10.80340766	     -2.89393166	      0.10762787	    -61.76838605	      3.93483082	    -22.27036551	      0.17197427	      1.42386783	      6.92114757	      0.39782342	    -11.17936533	      4.10329444	    -14.03541629	      1.75985493	     -7.95951650	     -5.15055374	      5.28544522
      1.16933333	      4.95406040	      3.43775423	     -4.89789475	      0.18425952	      1.03026320	      0.25747958	     11.21983184	     -2.69983418	      0.15788103	    -61.05821541	      4.13956321	    -22.12918907	      0.08250453	      0.91015990	      6.81981504	      0.57807723	    -10.83935254	      4.18037210	    -14.15508541	      1.66408642	     -8.02825961	     -5.01535690	      4.97357750
      1.17350000	      4.89660154	      3.29628768	     -4.86726189	      0.18937530	      1.03080997	      0.25745857	     11.69392907	     -2.47799715	      0.24450259	    -60.29362731	      4.33372468	    -22.00788078	      0.05521945	      0.49044112	      6.69270534	      0.64879419	    -10.54976041	      4.25873646	    -14.16609240	      1.62624192	     -8.01374009	     -4.87374315	      4.85508453
      1.17766667	      4.90186963	      3.16113130	     -4.80579853	      0.19449099	      1.03141429	      0.25737552	     12.07289877	     -2.28909719	      0.27945141	    -59.46130294	      4.51195319	    -21.84848239	     -0.00339067	     -0.02155432	      6.58606978	      0.82222745	    -10.20908774	      4.34361947	    -14.25801792	      1.53495973	     -8.08311410	     -4.74177367	      4.54421350
      1.18183333	      4.85021027	      3.01950608	     -4.75685360	      0.19961552	      1.03190547	      0.25734789	     12.49776542	     -2.07406756	      0.34556845	    -58.57176243	      4.67760088	    -21.71717899	     -0.02343567	     -0.45188912	      6.45550630	      0.89503074	     -9.90846746	      4.41035433	    -14.26223062	      1.49406911	     -8.07750256	     -4.59909942	      4.40548804
      1.18600000	      4.86018444	      2.89411680	     -4.68758164	      0.20473179	      1.03242987	      0.25728412	     12.83668394	     -1.89807946	      0.37633796	    -57.63086018	      4.82441248	    -21.57998396	     -0.06813820	     -0.97403381	      6.35397899	      1.06559726	     -9.55273837	      4.48549311	    -14.34575451	      1.39477228	     -8.15529274	     -4.48031998	      4.06603486
      1.19016667	      4.82329758	      2.76874137	     -4.61313732	      0.20986898	      1.03285886	      0.25723211	     13.20657596	     -1.71872960	      0.40296588	    -56.63380160	      4.94683801	    -21.45532079	     -0.10220471	     -1.43347184	      6.24200211	      1.19153729	     -9.22219682	      4.56216942	    -14.38967533	      1.30421236	     -8.16441251	     -4.35540622	      3.82606990
      1.19433333	      4.81201812	      2.64411769	     -4.53961262	      0.21499495	      1.03328389	      0.25719183	     13.52958185	     -1.54454727	      0.42833770	    -55.58262504	      5.05518673	    -21.34505087	     -0.12758076	     -1.92218989	      6.12906980	      1.29947444	     -8.88485438	      4.63666370	    -14.40782888	      1.22515135	     -8.20575207	     -4.23411700	      3.59093264
      1.19850000	      4.77628403	      2.52641487	     -4.45586415	      0.22013106	      1.03362612	      0.25714695	     13.86107040	     -1.37994348	      0.44529163	    -54.48520681	      5.14388001	    -21.25315708	     -0.15015608	     -2.38294550	      6.01931128	      1.41701667	     -8.54923758	      4.71039304	    -14.43062418	      1.14591987	     -8.22082858	     -4.11747251	      3.33260288
      1.20266667	      4.73191524	      2.40444637	     -4.37736633	      0.22526392	      1.03392139	      0.25712490	     14.18242122	     -1.20826815	      0.47078666	    -53.33567241	      5.23297594	    -21.15787854	     -0.16055659	     -2.82427394	      5.89915097	      1.48736785	     -8.23236930	      4.76760539	    -14.40968158	      1.10276710	     -8.22220234	     -3.99456330	      3.15839489
